<?xml version="1.0" standalone="no"?><!DOCTYPE svg PUBLIC "-//W3C//DTD SVG 1.1//EN" "http://www.w3.org/Graphics/SVG/1.1/DTD/svg11.dtd"><svg t="1561849346636" class="icon" viewBox="0 0 1024 1024" version="1.1" xmlns="http://www.w3.org/2000/svg" p-id="7528" xmlns:xlink="http://www.w3.org/1999/xlink" width="200" height="200"><defs><style type="text/css"></style></defs><path d="M986.763636 37.236364H37.236364c-18.618182 0-37.236364 13.963636-37.236364 37.236363v712.145455c0 18.618182 18.618182 37.236364 37.236364 37.236363h176.872727v134.981819c0 13.963636 9.309091 27.927273 18.618182 32.581818 4.654545 4.654545 9.309091 4.654545 13.963636 4.654545 9.309091 0 18.618182-4.654545 23.272727-9.309091l200.145455-162.909091h516.654545c18.618182 0 37.236364-18.618182 37.236364-37.236363V74.472727c0-23.272727-18.618182-37.236364-37.236364-37.236363z m-37.236363 712.145454H460.8c-9.309091 0-18.618182 4.654545-23.272727 9.309091l-153.6 121.018182v-93.090909c0-18.618182-18.618182-37.236364-37.236364-37.236364H74.472727V111.709091h879.709091v637.672727z" p-id="7529" fill="#ffffff"></path><path d="M228.072727 288.581818h567.854546v74.472727H228.072727zM228.072727 493.381818h321.163637v74.472727H228.072727z" p-id="7530" fill="#ffffff"></path></svg>