<?xml version="1.0" standalone="no"?><!DOCTYPE svg PUBLIC "-//W3C//DTD SVG 1.1//EN" "http://www.w3.org/Graphics/SVG/1.1/DTD/svg11.dtd"><svg t="1561849679414" class="icon" viewBox="0 0 1024 1024" version="1.1" xmlns="http://www.w3.org/2000/svg" p-id="30124" xmlns:xlink="http://www.w3.org/1999/xlink" width="200" height="200"><defs><style type="text/css"></style></defs><path d="M927.066809 623.178125c-10.329253 38.501896-26.270317 75.804477-47.424102 110.852714-6.123464 10.153244-19.346627 13.447267-29.468149 7.291057-10.153244-6.139837-13.478989-19.379373-7.339152-29.531594 19.0908-31.578206 33.481556-65.12423 42.771129-99.755981 26.685779-99.772354 12.967336-204.021673-38.661531-293.51287-51.708686-89.443102-135.108141-153.479557-234.880495-180.198082C406.027945 83.111906 193.500551 205.780737 138.353556 411.832649c-55.242162 206.036563 67.474764 418.515862 273.478582 473.742674 102.697987 27.517727 209.521944 12.088316 300.852022-43.394323 10.153244-6.15621 23.328311-2.910283 29.547966 7.194866 6.123464 10.153244 2.89391 23.344684-7.179516 29.531594-68.593238 41.683355-145.053654 62.997799-222.665289 62.997799-37.222763 0-74.66963-4.9088-111.636566-14.789844-228.916667-61.381999-365.320313-297.54265-303.905568-526.394848 61.270459-228.901317 297.430086-365.224122 526.346753-303.921941 110.884436 29.692253 203.526393 100.812033 260.943081 200.248743C941.552731 396.451334 956.790784 512.260943 927.066809 623.178125L927.066809 623.178125zM526.666536 663.438061c11.320836-3.789303 23.376407 2.350534 27.101241 13.606903 3.789303 11.239995-2.254344 23.439852-13.510712 27.182083l-64.516386 21.473057c-2.222621 0.783853-4.476965 1.134847-6.747681 1.134847-5.372358 0-10.585079-2.030239-14.646582-5.724375-5.756097-5.372358-8.154727-13.382798-6.219655-20.99415l55.738465-223.128847-51.197032 12.774955c-11.512195 2.910283-23.168676-4.061502-26.030863-15.637142-2.89391-11.44875 4.109598-23.13593 15.621792-26.046213l85.957721-21.457708c7.291057-1.822508 15.062044 0.303922 20.434401 5.628184 5.29254 5.372358 7.467065 13.126972 5.628184 20.418029l-54.986335 219.882919L526.666536 663.438061 526.666536 663.438061zM578.582953 323.620585l-5.468548 21.825075c-2.430352 9.753131-11.192923 16.261359-20.849864 16.261359-1.727341 0-3.485381-0.207731-5.244444-0.623193-11.512195-2.862187-18.515702-14.582113-15.573697-26.046213l5.40408-21.841447c2.942005-11.44875 14.534018-18.387789 26.077935-15.621792C574.426283 300.43656 581.476863 312.108391 578.582953 323.620585L578.582953 323.620585z" p-id="30125" fill="#ffffff"></path></svg>