<?xml version="1.0" standalone="no"?><!DOCTYPE svg PUBLIC "-//W3C//DTD SVG 1.1//EN" "http://www.w3.org/Graphics/SVG/1.1/DTD/svg11.dtd"><svg t="1561667440988" class="icon" viewBox="0 0 1024 1024" version="1.1" xmlns="http://www.w3.org/2000/svg" p-id="6224" xmlns:xlink="http://www.w3.org/1999/xlink" width="200" height="200"><defs><style type="text/css"></style></defs><path d="M854.016 512l0-169.984-683.989333 0 0 169.984 512 0 0-86.016 86.016 0 0 86.016 86.016 0zM297.984 854.016q52.010667 0 89.984-38.016t38.016-89.984-38.016-89.984-89.984-38.016-89.984 38.016-38.016 89.984 38.016 89.984 89.984 38.016zM137.984 262.016l539.989333-219.989333 27.989333 72.021333-352 141.994667 500.010667 0q36.010667 0 59.989333 25.002667t24.021333 61.013333l0 512q0 34.005333-24.021333 59.008t-59.989333 25.002667l-683.989333 0q-36.010667 0-59.989333-25.002667t-24.021333-59.008l0-512q0-59.989333 52.010667-80z" p-id="6225" fill="#D53B33"></path></svg>