<?xml version="1.0" standalone="no"?><!DOCTYPE svg PUBLIC "-//W3C//DTD SVG 1.1//EN" "http://www.w3.org/Graphics/SVG/1.1/DTD/svg11.dtd"><svg t="1561849319776" class="icon" viewBox="0 0 1024 1024" version="1.1" xmlns="http://www.w3.org/2000/svg" p-id="6638" xmlns:xlink="http://www.w3.org/1999/xlink" width="200" height="200"><defs><style type="text/css"></style></defs><path d="M429.568 331.776V243.2c0-36.864-30.208-67.072-67.072-67.072s-67.072 30.208-67.072 67.072v88.576c-30.208 20.992-49.664 56.32-49.664 95.744 0 39.424 19.968 74.752 49.664 95.744v257.536c0 36.864 30.208 67.072 67.072 67.072s67.072-30.208 67.072-67.072v-257.536c30.208-20.992 49.664-56.32 49.664-95.744 0-39.424-19.456-74.752-49.664-95.744z m299.52 192V243.2c0-36.864-30.208-67.072-67.072-67.072s-67.072 30.208-67.072 67.072v280.576c-30.208 20.992-49.664 56.32-49.664 95.744 0 39.424 19.968 74.752 49.664 95.744v65.536c0 36.864 30.208 67.072 67.072 67.072s67.072-30.208 67.072-67.072v-65.536c30.208-20.992 49.664-56.32 49.664-95.744 0-39.424-19.456-74.752-49.664-95.744z" fill="#ffffff" p-id="6639"></path></svg>